<svg width="1920" height="730" viewBox="0 0 1920 730" fill="none" xmlns="http://www.w3.org/2000/svg">
<g clip-path="url(#clip0_22_26)">
<path d="M-211.922 317.955C-320.644 -151.518 332.803 -419.465 673.119 -494.754C-358.03 398.74 587.446 666.455 1189.07 688.631C767.376 760.686 -103.199 787.422 -211.922 317.955Z" fill="#240C3C" fill-opacity="0.3"/>
<path d="M-12.5979 317.955C-121.32 -151.518 532.127 -419.465 872.441 -494.754C-158.705 398.74 786.768 666.455 1388.39 688.631C966.699 760.686 96.125 787.422 -12.5979 317.955Z" fill="#311152" fill-opacity="0.3"/>
<path d="M169.561 317.955C60.8378 -151.518 714.282 -419.465 1054.6 -494.754C23.4525 398.74 968.922 666.455 1570.55 688.631C1148.86 760.686 278.283 787.422 169.561 317.955Z" fill="#311152" fill-opacity="0.3"/>
<path d="M251.18 421.188C-248.18 115.227 440.491 -315.077 847.246 -491.983C-247.989 439.202 720.565 678.004 1341.74 681.01C1186.29 721.884 750.541 727.152 251.18 421.188Z" fill="#41136F" fill-opacity="0.3"/>
</g>
<g clip-path="url(#clip1_22_26)">
<path d="M2127.92 317.955C2236.64 -151.518 1583.2 -419.465 1242.88 -494.754C2274.03 398.74 1328.55 666.455 726.929 688.631C1148.62 760.686 2019.2 787.422 2127.92 317.955Z" fill="#240C3C" fill-opacity="0.3"/>
<path d="M1928.6 317.955C2037.32 -151.518 1383.87 -419.465 1043.56 -494.754C2074.71 398.74 1129.23 666.455 527.607 688.631C949.301 760.686 1819.87 787.422 1928.6 317.955Z" fill="#311152" fill-opacity="0.3"/>
<path d="M1746.44 317.955C1855.16 -151.518 1201.72 -419.465 861.405 -494.754C1892.55 398.74 947.078 666.455 345.445 688.631C767.139 760.686 1637.72 787.422 1746.44 317.955Z" fill="#311152" fill-opacity="0.3"/>
<path d="M1664.82 421.188C2164.18 115.227 1475.51 -315.077 1068.75 -491.983C2163.99 439.202 1195.43 678.004 574.255 681.01C729.711 721.884 1165.46 727.152 1664.82 421.188Z" fill="#41136F" fill-opacity="0.3"/>
</g>
<defs>
<clipPath id="clip0_22_26">
<rect width="1526" height="1011" fill="white" transform="translate(-55 -281)"/>
</clipPath>
<clipPath id="clip1_22_26">
<rect width="1526" height="1011" fill="white" transform="matrix(-1 0 0 1 1971 -281)"/>
</clipPath>
</defs>
</svg>
