<svg width="350" height="143" viewBox="0 0 350 143" fill="none" xmlns="http://www.w3.org/2000/svg">
<g filter="url(#filter0_d_22_65)">
<rect x="20" y="18" width="306" height="99" rx="16" fill="#1E93CE"/>
</g>
<path d="M130.678 57.0938V77H126.59V57.0938H130.678ZM136.803 57.0938V60.3066H120.561V57.0938H136.803ZM152.498 73.8008V77H141.902V73.8008H152.498ZM143.242 57.0938V77H139.141V57.0938H143.242ZM151.117 65.2012V68.3184H141.902V65.2012H151.117ZM152.484 57.0938V60.3066H141.902V57.0938H152.484ZM167.688 73.8008V77H157.666V73.8008H167.688ZM158.992 57.0938V77H154.891V57.0938H158.992ZM183.396 73.8008V77H172.801V73.8008H183.396ZM174.141 57.0938V77H170.039V57.0938H174.141ZM182.016 65.2012V68.3184H172.801V65.2012H182.016ZM183.383 57.0938V60.3066H172.801V57.0938H183.383ZM201.566 66.5957V74.4844C201.257 74.8581 200.778 75.2637 200.131 75.7012C199.484 76.1296 198.65 76.4987 197.629 76.8086C196.608 77.1185 195.373 77.2734 193.924 77.2734C192.639 77.2734 191.467 77.0638 190.41 76.6445C189.353 76.2161 188.441 75.5918 187.676 74.7715C186.919 73.9512 186.336 72.9486 185.926 71.7637C185.516 70.5697 185.311 69.207 185.311 67.6758V66.4316C185.311 64.9004 185.507 63.5378 185.898 62.3438C186.299 61.1497 186.869 60.1426 187.607 59.3223C188.346 58.502 189.225 57.8776 190.246 57.4492C191.267 57.0208 192.402 56.8066 193.65 56.8066C195.382 56.8066 196.804 57.0892 197.916 57.6543C199.028 58.2103 199.876 58.985 200.459 59.9785C201.051 60.9629 201.416 62.0931 201.553 63.3691H197.574C197.474 62.6947 197.283 62.1068 197 61.6055C196.717 61.1042 196.312 60.7122 195.783 60.4297C195.264 60.1471 194.589 60.0059 193.76 60.0059C193.076 60.0059 192.465 60.1471 191.928 60.4297C191.399 60.7031 190.952 61.1087 190.588 61.6465C190.223 62.1842 189.945 62.8496 189.754 63.6426C189.562 64.4355 189.467 65.3561 189.467 66.4043V67.6758C189.467 68.7148 189.567 69.6354 189.768 70.4375C189.968 71.2305 190.264 71.9004 190.656 72.4473C191.057 72.985 191.549 73.3906 192.133 73.6641C192.716 73.9375 193.395 74.0742 194.17 74.0742C194.817 74.0742 195.355 74.0195 195.783 73.9102C196.221 73.8008 196.572 73.6686 196.836 73.5137C197.109 73.3496 197.319 73.1947 197.465 73.0488V69.5215H193.719V66.5957H201.566ZM204.875 57.0938H212.299C213.821 57.0938 215.129 57.3216 216.223 57.7773C217.326 58.2331 218.173 58.9076 218.766 59.8008C219.358 60.694 219.654 61.7923 219.654 63.0957C219.654 64.1621 219.472 65.0781 219.107 65.8438C218.752 66.6003 218.246 67.2337 217.59 67.7441C216.943 68.2454 216.182 68.6465 215.307 68.9473L214.008 69.6309H207.555L207.527 66.4316H212.326C213.046 66.4316 213.643 66.304 214.117 66.0488C214.591 65.7936 214.947 65.4382 215.184 64.9824C215.43 64.5267 215.553 63.998 215.553 63.3965C215.553 62.7585 215.434 62.207 215.197 61.7422C214.96 61.2773 214.6 60.9219 214.117 60.6758C213.634 60.4297 213.028 60.3066 212.299 60.3066H208.977V77H204.875V57.0938ZM216.004 77L211.465 68.127L215.799 68.0996L220.393 76.8086V77H216.004ZM230.906 60.498L225.492 77H221.131L228.527 57.0938H231.303L230.906 60.498ZM235.404 77L229.977 60.498L229.539 57.0938H232.342L239.779 77H235.404ZM235.158 69.5898V72.8027H224.645V69.5898H235.158ZM243.498 57.0938H246.971L252.084 71.709L257.197 57.0938H260.67L253.479 77H250.689L243.498 57.0938ZM241.625 57.0938H245.084L245.713 71.3398V77H241.625V57.0938ZM259.084 57.0938H262.557V77H258.455V71.3398L259.084 57.0938Z" fill="white"/>
<path d="M95 83C86.75 83 80 76.25 80 68C80 59.75 86.75 53 95 53C103.25 53 110 59.75 110 68C110 76.25 103.25 83 95 83ZM95 55.25C87.575 55.25 82.25 60.575 82.25 68C82.25 75.425 87.575 80.75 95 80.75C102.425 80.75 107.75 75.425 107.75 68C107.75 60.575 102.425 55.25 95 55.25Z" fill="white"/>
<path fill-rule="evenodd" clip-rule="evenodd" d="M92.525 71.0751L99.5 64.7751C99.8 64.4751 99.425 64.4001 99.05 64.6251L90.5 70.0251L86.8251 68.9001C86.0001 68.6751 86.0001 68.0751 86.9751 67.7001L101.45 62.1501C102.125 61.8501 102.725 62.3001 102.5 63.3501L100.025 74.9751C99.875 75.8001 99.35 76.0251 98.675 75.6501L94.925 72.8751L93.125 74.6001C92.9 74.8251 92.6 74.8251 92.6 74.6001L92.525 71.0751Z" fill="white"/>
<defs>
<filter id="filter0_d_22_65" x="0" y="0" width="350" height="143" filterUnits="userSpaceOnUse" color-interpolation-filters="sRGB">
<feFlood flood-opacity="0" result="BackgroundImageFix"/>
<feColorMatrix in="SourceAlpha" type="matrix" values="0 0 0 0 0 0 0 0 0 0 0 0 0 0 0 0 0 0 127 0" result="hardAlpha"/>
<feMorphology radius="2" operator="dilate" in="SourceAlpha" result="effect1_dropShadow_22_65"/>
<feOffset dx="2" dy="4"/>
<feGaussianBlur stdDeviation="10"/>
<feComposite in2="hardAlpha" operator="out"/>
<feColorMatrix type="matrix" values="0 0 0 0 0 0 0 0 0 0 0 0 0 0 0 0 0 0 0.5 0"/>
<feBlend mode="normal" in2="BackgroundImageFix" result="effect1_dropShadow_22_65"/>
<feBlend mode="normal" in="SourceGraphic" in2="effect1_dropShadow_22_65" result="shape"/>
</filter>
</defs>
</svg>
