<svg width="350" height="143" viewBox="0 0 350 143" fill="none" xmlns="http://www.w3.org/2000/svg">
<g filter="url(#filter0_d_22_62)">
<rect x="20" y="18" width="306" height="99" rx="16" fill="#00B74A"/>
</g>
<path d="M127.576 74.8418L131.541 58.0938H133.756L134.262 60.8828L130.037 78H127.658L127.576 74.8418ZM125.539 58.0938L128.82 74.8418L128.547 78H125.895L121.479 58.0938H125.539ZM137.748 74.7734L140.988 58.0938H145.049L140.646 78H137.994L137.748 74.7734ZM135 58.0938L138.992 74.9102L138.883 78H136.504L132.252 60.8691L132.799 58.0938H135ZM160.553 66.2012V69.4004H150.162V66.2012H160.553ZM151.379 58.0938V78H147.277V58.0938H151.379ZM163.479 58.0938V78H159.391V58.0938H163.479ZM175.387 61.498L169.973 78H165.611L173.008 58.0938H175.783L175.387 61.498ZM179.885 78L174.457 61.498L174.02 58.0938H176.822L184.26 78H179.885ZM179.639 70.5898V73.8027H169.125V70.5898H179.639ZM193.311 58.0938V78H189.223V58.0938H193.311ZM199.436 58.0938V61.3066H183.193V58.0938H199.436ZM211.918 72.791C211.918 72.4355 211.863 72.1165 211.754 71.834C211.654 71.5423 211.462 71.278 211.18 71.041C210.897 70.7949 210.501 70.5534 209.99 70.3164C209.48 70.0794 208.819 69.8333 208.008 69.5781C207.105 69.2865 206.249 68.9583 205.438 68.5938C204.635 68.2292 203.924 67.8053 203.305 67.3223C202.694 66.8301 202.211 66.2604 201.855 65.6133C201.509 64.9661 201.336 64.2142 201.336 63.3574C201.336 62.528 201.518 61.776 201.883 61.1016C202.247 60.418 202.758 59.8346 203.414 59.3516C204.07 58.8594 204.845 58.4811 205.738 58.2168C206.641 57.9525 207.63 57.8203 208.705 57.8203C210.173 57.8203 211.453 58.0846 212.547 58.6133C213.641 59.1419 214.488 59.8665 215.09 60.7871C215.701 61.7077 216.006 62.7604 216.006 63.9453H211.932C211.932 63.362 211.809 62.8516 211.562 62.4141C211.326 61.9674 210.961 61.6165 210.469 61.3613C209.986 61.1061 209.375 60.9785 208.637 60.9785C207.926 60.9785 207.333 61.0879 206.859 61.3066C206.385 61.5163 206.03 61.8034 205.793 62.168C205.556 62.5234 205.438 62.9245 205.438 63.3711C205.438 63.7083 205.52 64.0137 205.684 64.2871C205.857 64.5605 206.112 64.8158 206.449 65.0527C206.786 65.2897 207.201 65.513 207.693 65.7227C208.186 65.9323 208.755 66.1374 209.402 66.3379C210.487 66.666 211.439 67.0352 212.26 67.4453C213.089 67.8555 213.782 68.3158 214.338 68.8262C214.894 69.3366 215.313 69.9154 215.596 70.5625C215.878 71.2096 216.02 71.9434 216.02 72.7637C216.02 73.6296 215.851 74.4043 215.514 75.0879C215.176 75.7715 214.689 76.3503 214.051 76.8242C213.413 77.2982 212.652 77.6582 211.768 77.9043C210.883 78.1504 209.895 78.2734 208.801 78.2734C207.816 78.2734 206.846 78.1458 205.889 77.8906C204.932 77.6263 204.061 77.2298 203.277 76.7012C202.503 76.1725 201.883 75.498 201.418 74.6777C200.953 73.8574 200.721 72.8867 200.721 71.7656H204.836C204.836 72.3854 204.932 72.9095 205.123 73.3379C205.314 73.7663 205.583 74.1126 205.93 74.377C206.285 74.6413 206.704 74.8327 207.188 74.9512C207.68 75.0697 208.217 75.1289 208.801 75.1289C209.512 75.1289 210.095 75.0286 210.551 74.8281C211.016 74.6276 211.357 74.3496 211.576 73.9941C211.804 73.6387 211.918 73.2376 211.918 72.791ZM226.902 61.498L221.488 78H217.127L224.523 58.0938H227.299L226.902 61.498ZM231.4 78L225.973 61.498L225.535 58.0938H228.338L235.775 78H231.4ZM231.154 70.5898V73.8027H220.641V70.5898H231.154ZM245.373 70.9043H240.301V67.7051H245.373C246.157 67.7051 246.795 67.5775 247.287 67.3223C247.779 67.0579 248.139 66.6934 248.367 66.2285C248.595 65.7637 248.709 65.2396 248.709 64.6562C248.709 64.0638 248.595 63.5124 248.367 63.002C248.139 62.4915 247.779 62.0814 247.287 61.7715C246.795 61.4616 246.157 61.3066 245.373 61.3066H241.723V78H237.621V58.0938H245.373C246.932 58.0938 248.267 58.3763 249.379 58.9414C250.5 59.4974 251.357 60.2676 251.949 61.252C252.542 62.2363 252.838 63.362 252.838 64.6289C252.838 65.9141 252.542 67.026 251.949 67.9648C251.357 68.9036 250.5 69.6283 249.379 70.1387C248.267 70.6491 246.932 70.9043 245.373 70.9043ZM263.42 70.9043H258.348V67.7051H263.42C264.204 67.7051 264.842 67.5775 265.334 67.3223C265.826 67.0579 266.186 66.6934 266.414 66.2285C266.642 65.7637 266.756 65.2396 266.756 64.6562C266.756 64.0638 266.642 63.5124 266.414 63.002C266.186 62.4915 265.826 62.0814 265.334 61.7715C264.842 61.4616 264.204 61.3066 263.42 61.3066H259.77V78H255.668V58.0938H263.42C264.979 58.0938 266.314 58.3763 267.426 58.9414C268.547 59.4974 269.404 60.2676 269.996 61.252C270.589 62.2363 270.885 63.362 270.885 64.6289C270.885 65.9141 270.589 67.026 269.996 67.9648C269.404 68.9036 268.547 69.6283 267.426 70.1387C266.314 70.6491 264.979 70.9043 263.42 70.9043Z" fill="white"/>
<path d="M98.6667 71.3334C98.3333 71.1667 96.1667 70.1667 95.8333 70.0001C95.5 69.8334 95.1667 69.8334 94.8333 70.1667C94.5 70.5001 93.8333 71.5001 93.5 71.8334C93.3333 72.1667 93 72.1667 92.6667 72.0001C91.5 71.5001 90.3333 70.8334 89.3333 70.0001C88.5 69.1667 87.6667 68.1667 87 67.1667C86.8333 66.8334 87 66.5001 87.1667 66.3334C87.3333 66.1667 87.5 65.8334 87.8333 65.6667C88 65.5001 88.1667 65.1667 88.1667 65.0001C88.3333 64.8334 88.3333 64.5001 88.1667 64.3334C88 64.1667 87.1667 62.1667 86.8333 61.3334C86.6667 60.1667 86.3333 60.1667 86 60.1667C85.8333 60.1667 85.5 60.1667 85.1667 60.1667C84.8333 60.1667 84.3333 60.5001 84.1667 60.6667C83.1667 61.6667 82.6667 62.8334 82.6667 64.1667C82.8333 65.6667 83.3333 67.1667 84.3333 68.5001C86.1667 71.1667 88.5 73.3334 91.3333 74.6667C92.1667 75.0001 92.8333 75.3334 93.6667 75.5001C94.5 75.8334 95.3333 75.8334 96.3333 75.6667C97.5 75.5001 98.5 74.6667 99.1667 73.6667C99.5 73.0001 99.5 72.3334 99.3333 71.6667C99.3333 71.6667 99 71.5001 98.6667 71.3334ZM102.833 56.1667C96.3333 49.6667 85.8333 49.6667 79.3333 56.1667C74 61.5001 73 69.6667 76.6667 76.1667L74.3333 84.6667L83.1667 82.3334C85.6667 83.6667 88.3333 84.3334 91 84.3334C100.167 84.3334 107.5 77.0001 107.5 67.8334C107.667 63.5001 105.833 59.3334 102.833 56.1667ZM98.3333 79.5001C96.1667 80.8334 93.6667 81.6667 91 81.6667C88.5 81.6667 86.1667 81.0001 84 79.8334L83.5 79.5001L78.3333 80.8334L79.6667 75.8334L79.3333 75.3334C75.3333 68.6667 77.3333 60.3334 83.8333 56.1667C90.3333 52.0001 98.6667 54.1667 102.667 60.5001C106.667 67.0001 104.833 75.5001 98.3333 79.5001Z" fill="white"/>
<defs>
<filter id="filter0_d_22_62" x="0" y="0" width="350" height="143" filterUnits="userSpaceOnUse" color-interpolation-filters="sRGB">
<feFlood flood-opacity="0" result="BackgroundImageFix"/>
<feColorMatrix in="SourceAlpha" type="matrix" values="0 0 0 0 0 0 0 0 0 0 0 0 0 0 0 0 0 0 127 0" result="hardAlpha"/>
<feMorphology radius="2" operator="dilate" in="SourceAlpha" result="effect1_dropShadow_22_62"/>
<feOffset dx="2" dy="4"/>
<feGaussianBlur stdDeviation="10"/>
<feComposite in2="hardAlpha" operator="out"/>
<feColorMatrix type="matrix" values="0 0 0 0 0 0 0 0 0 0 0 0 0 0 0 0 0 0 0.5 0"/>
<feBlend mode="normal" in2="BackgroundImageFix" result="effect1_dropShadow_22_62"/>
<feBlend mode="normal" in="SourceGraphic" in2="effect1_dropShadow_22_62" result="shape"/>
</filter>
</defs>
</svg>
