<svg width="111" height="43" viewBox="0 0 111 43" fill="none" xmlns="http://www.w3.org/2000/svg">
<path d="M60.3726 13.8085H57.8175C56.4508 13.8085 55.1435 14.4747 54.6087 15.8071L47.6564 32.1592L47.0622 16.9578C46.8245 14.5958 45.3983 13.8085 43.5563 13.8085H39.8721C38.5054 13.8085 37.1981 14.5352 36.6633 15.8071L29.7704 32.1592H29.6515L29.1762 16.9578C28.9979 15.0803 27.5124 13.8085 25.6703 13.8085H22.2238L21.2136 13.9296C22.5803 15.9282 23.1151 18.1691 22.6992 20.531L20.4412 32.462L21.5108 39.8507C21.8079 41.6071 23.234 42.8789 25.0166 42.8789H30.424C31.7907 42.8789 33.098 42.031 33.6328 40.6986L39.991 25.4367L40.7634 39.6691C40.9417 41.486 42.4272 42.8789 44.2693 42.8789H49.6173C50.984 42.8789 52.1724 42.1522 52.7666 40.8803L63.522 18.8352C64.651 16.4127 62.9872 13.8085 60.3726 13.8085ZM74.9904 13.7479H71.0686C69.3453 13.7479 67.9192 14.9592 67.6221 16.655L63.5814 38.7C63.1655 40.8803 64.8293 42.8789 67.0279 42.8789H70.8903C72.6135 42.8789 74.0397 41.6676 74.3368 39.9719L78.4369 17.9268C78.8528 15.7465 77.189 13.7479 74.9904 13.7479ZM108.504 15.8071C106.9 14.4747 104.701 13.8085 101.968 13.8085C98.1055 13.8085 94.6591 15.5648 91.5691 19.0775L91.6285 18.7747C92.0445 16.5944 90.3807 14.5352 88.1821 14.5352H85.211C83.5472 14.5352 82.0616 15.8071 81.7645 17.5029L78.1398 38.7C77.7238 40.8803 79.3876 42.8789 81.5862 42.8789H85.5675C87.2313 42.8789 88.7169 41.6676 89.014 39.9719L90.9749 28.4043C91.4503 26.0423 92.1039 24.5282 92.817 23.862C93.7083 23.0747 94.8373 22.6507 96.204 22.6507C98.2838 22.6507 99.3534 23.7409 99.3534 25.9817L99.294 26.9507L99.2345 27.8592L97.3925 38.7C96.9765 40.8803 98.6403 42.8789 100.839 42.8789H104.701C106.365 42.8789 107.851 41.6676 108.148 39.9719L110.644 25.8606C110.881 24.6493 110.941 23.4986 110.941 22.4085C110.941 19.3198 110.109 17.1395 108.504 15.8071Z" fill="white"/>
<path d="M74.5745 10.5986C77.4296 10.5986 79.7442 8.23956 79.7442 5.32956C79.7442 2.41956 77.4296 0.0605469 74.5745 0.0605469C71.7193 0.0605469 69.4048 2.41956 69.4048 5.32956C69.4048 8.23956 71.7193 10.5986 74.5745 10.5986Z" fill="#288FF2"/>
<path d="M18.6594 16.8972C18.3493 16.2511 17.9168 15.674 17.3869 15.199C16.8569 14.724 16.24 14.3607 15.5716 14.1299C14.9033 13.899 14.1967 13.8053 13.4926 13.8541C12.7885 13.9029 12.1009 14.0932 11.4693 14.4141L2.61548 18.4113C2.09051 18.6473 1.61669 18.987 1.22145 19.4109C0.826206 19.8348 0.517402 20.3345 0.312917 20.8808C0.108433 21.4272 0.0123301 22.0095 0.0301748 22.594C0.0480194 23.1785 0.179457 23.7536 0.416875 24.2859C1.42705 26.5268 3.98219 27.5564 6.18079 26.5268L7.36923 25.9817L5.40831 36.5803C5.17192 37.9938 5.49613 39.4451 6.30962 40.615C7.12312 41.7848 8.35926 42.5774 9.74611 42.8184C11.133 43.0593 12.5569 42.7288 13.7047 41.8997C14.8525 41.0706 15.6302 39.8107 15.8666 38.3972L19.0753 20.531L19.1348 20.1071C19.313 18.9564 19.1348 17.8662 18.6594 16.8972Z" fill="#288FF2"/>
</svg>
